<?xml version="1.0" encoding="UTF-8" standalone="no" ?>
<!DOCTYPE svg PUBLIC "-//W3C//DTD SVG 1.1//EN" "http://www.w3.org/Graphics/SVG/1.1/DTD/svg11.dtd">
<svg xmlns="http://www.w3.org/2000/svg" xmlns:xlink="http://www.w3.org/1999/xlink" version="1.1" width="1080" height="1080" viewBox="0 0 1080 1080" xml:space="preserve">
<desc>Created with Fabric.js 5.2.4</desc>
<defs>
</defs>
<g transform="matrix(1 0 0 1 540 540)" id="cd886648-3d9d-493e-9ec8-d86c90dc35e4"  >
<rect style="stroke: none; stroke-width: 1; stroke-dasharray: none; stroke-linecap: butt; stroke-dashoffset: 0; stroke-linejoin: miter; stroke-miterlimit: 4; fill: rgb(255,255,255); fill-rule: nonzero; opacity: 1; visibility: hidden;" vector-effect="non-scaling-stroke"  x="-540" y="-540" rx="0" ry="0" width="1080" height="1080" />
</g>
<g transform="matrix(1 0 0 1 540 540)" id="ee1b074d-c5a8-4b4d-b9af-232ac5d52989"  >
</g>
<g transform="matrix(1 0 0 1 540 540)"  >
<path style="stroke: rgb(0,0,0); stroke-width: 0; stroke-dasharray: none; stroke-linecap: butt; stroke-dashoffset: 0; stroke-linejoin: miter; stroke-miterlimit: 4; fill: rgb(74,144,226); fill-rule: nonzero; opacity: 1;" vector-effect="non-scaling-stroke"  transform=" translate(-500, 480)" d="M 182 -74 Q 153 -74 133.5 -93.5 Q 114 -113 114 -142 L 114 -214 Q 114 -241 124 -265.5 Q 134 -290 154 -310 L 699 -854 Q 714 -869 732 -877.5 Q 750 -886 768 -886 Q 787 -886 805.5 -877.5 Q 824 -869 840 -854 L 896 -800 Q 911 -786 918.5 -767.5 Q 926 -749 926 -730 Q 926 -712 919 -693.5 Q 912 -675 896 -660 L 351 -114 Q 331 -94 306.5 -84 Q 282 -74 255 -74 L 182 -74 Z M 728 -640 L 818 -729 L 769 -778 L 681 -688 L 728 -640 Z M 561 -74 Q 640 -74 707 -114 Q 774 -154 774 -227 Q 774 -263 757 -289 Q 740 -315 710 -337 Q 693 -351 671.5 -351.5 Q 650 -352 635 -335 Q 619 -319 618.5 -295.5 Q 618 -272 636 -259 Q 651 -248 660 -241 Q 669 -234 669 -227 Q 669 -208 636 -193.5 Q 603 -179 561 -179 Q 539 -179 524 -164 Q 509 -149 509 -127 Q 509 -105 524 -89.5 Q 539 -74 561 -74 Z M 298 -753 Q 298 -742 282.5 -730.5 Q 267 -719 214 -699 Q 131 -664 102.5 -631 Q 74 -598 74 -553 Q 74 -515 92 -492 Q 110 -469 138 -453 Q 156 -441 177 -444 Q 198 -447 210 -465 Q 222 -483 219 -504 Q 216 -525 197 -537 Q 188 -541 183.5 -544.5 Q 179 -548 179 -553 Q 179 -561 192 -571.5 Q 205 -582 260 -603 Q 347 -637 375 -670.5 Q 403 -704 403 -753 Q 403 -814 359 -850 Q 315 -886 240 -886 Q 195 -886 158.5 -869.5 Q 122 -853 102 -826 Q 89 -808 90.5 -787.5 Q 92 -767 110 -753 Q 126 -741 147 -742 Q 168 -743 182 -759 Q 192 -770 205.5 -775.5 Q 219 -781 239 -781 Q 269 -781 283.5 -772.5 Q 298 -764 298 -753 Z" stroke-linecap="round" />
</g>
<g transform="matrix(NaN NaN NaN NaN 0 0)"  >
<g style=""   >
</g>
</g>
<g transform="matrix(NaN NaN NaN NaN 0 0)"  >
<g style=""   >
</g>
</g>
</svg>